<svg xmlns="http://www.w3.org/2000/svg" version="1.1" xmlns:xlink="http://www.w3.org/1999/xlink" viewBox="0 0 200 200"><rect width="200" height="200" fill="url('#gradient')"></rect><defs><linearGradient id="gradient" gradientTransform="rotate(45 0.5 0.5)"><stop offset="0%" stop-color="#445725"></stop><stop offset="100%" stop-color="#597f2b"></stop></linearGradient></defs><g><g fill="#445725" transform="matrix(9.079802955665025,0,0,9.079802955665025,3.889348387659467,164.56165405329813)" stroke="#f3f2f0" stroke-width="0.2"><path d="M9.17-4.81L12.58-4.81Q12.51-3.33 11.78-2.19Q11.04-1.05 9.72-0.43Q8.40 0.20 6.70 0.20L6.70 0.20Q3.90 0.20 2.29-1.63Q0.67-3.46 0.67-6.79L0.67-6.79L0.67-7.49Q0.67-9.58 1.40-11.15Q2.13-12.71 3.50-13.57Q4.86-14.42 6.66-14.42L6.66-14.42Q9.25-14.42 10.82-13.06Q12.39-11.70 12.61-9.31L12.61-9.31L9.19-9.31Q9.15-10.61 8.54-11.17Q7.92-11.74 6.66-11.74L6.66-11.74Q5.38-11.74 4.79-10.78Q4.19-9.82 4.16-7.72L4.16-7.72L4.16-6.72Q4.16-4.44 4.73-3.47Q5.30-2.49 6.70-2.49L6.70-2.49Q7.88-2.49 8.51-3.05Q9.13-3.60 9.17-4.81L9.17-4.81ZM20.50-10.64L20.44-7.59L19.36-7.67Q17.80-7.67 17.36-6.69L17.36-6.69L17.36 0L14.07 0L14.07-10.57L17.16-10.57L17.27-9.21Q18.10-10.76 19.58-10.76L19.58-10.76Q20.11-10.76 20.50-10.64L20.50-10.64Z"></path></g></g></svg>